<svg xmlns="http://www.w3.org/2000/svg" width="1600" height="1000" viewBox="0 0 1600 1000" role="img" aria-label="Golf practice range">
  <rect width="1600" height="1000" fill="#2d6b59"/>
  <path d="M0 650C240 560 470 570 720 610C1010 655 1280 610 1600 500V1000H0Z" fill="#5fa86f"/>
  <path d="M0 760C330 690 600 705 860 740C1130 775 1370 720 1600 640V1000H0Z" fill="#88bd68"/>
  <path d="M0 865C360 815 680 825 970 850C1190 870 1380 835 1600 780V1000H0Z" fill="#c5d982"/>
  <g fill="none" stroke="#e5f3d3" stroke-width="4" opacity="0.75">
    <path d="M800 570C720 690 700 810 735 1000"/>
    <path d="M800 570C860 700 875 820 840 1000"/>
    <path d="M800 570C650 690 560 820 480 1000"/>
    <path d="M800 570C980 690 1070 820 1160 1000"/>
  </g>
  <g fill="#ffffff" opacity="0.9">
    <circle cx="800" cy="570" r="10"/>
    <circle cx="695" cy="700" r="7"/>
    <circle cx="902" cy="715" r="6"/>
    <circle cx="570" cy="825" r="5"/>
    <circle cx="1030" cy="835" r="5"/>
  </g>
</svg>
